<svg xmlns="http://www.w3.org/2000/svg"><symbol id="brachiosaurus" viewBox="0 0 256 256"><path d="M59.65 166.7a32.81 32.81 0 0 0-7.61.85.57.57 0 0 1 0 .12.34.34 0 0 0 0 .13c0 .28.26.59.77.95a13.57 13.57 0 0 0 2 1c.79.33 1.68.65 2.63 1s1.89.59 2.78.83 1.68.45 2.38.6a10.54 10.54 0 0 0 1.45.21c.59 0 1.31 0 2.14-.1a14.21 14.21 0 0 0 2.49-.41A11.92 11.92 0 0 0 71 171a4.37 4.37 0 0 0 1.68-1.45 27.3 27.3 0 0 0-6.33-2.19 31.53 31.53 0 0 0-6.7-.66z"/><path d="M128 2a126 126 0 1 0 126 126A126 126 0 0 0 128 2zm82.17 69.52v.31a6.63 6.63 0 0 1-.1 1.38c-.13.66-.19 1.37-.32 2.09s-.22 1.41-.35 2.07-.18 1.09-.23 1.33a10.18 10.18 0 0 0-.9 1.81c-.23.64-.44 1.28-.63 2s-.38 1.31-.58 2a15.37 15.37 0 0 1-.72 1.92 30.33 30.33 0 0 1-1.66 3 21.11 21.11 0 0 0-1.58 3l-19.78 27.48a3.14 3.14 0 0 1-.23.54 1.8 1.8 0 0 1-.27.28c-.08.08-.19.16-.31.28a3.55 3.55 0 0 0-.41.49l-1.64 2.24c-.64.88-1.33 1.84-2 2.85s-1.45 2.11-2.17 3.21-1.38 2.19-2 3.24a25.92 25.92 0 0 0-1.38 2.94 6.94 6.94 0 0 0-.52 2.3c0 .3-.22.53-.21.72s.19.43.19.69c-.16 0-.26.14-.26.38s.1.37.26.4v10.08a2.64 2.64 0 0 1-.24 1c-.16.36-.2.74-.36 1.15s-.49.81-.6 1.2-.44.79-.44 1.12v1.64a.41.41 0 0 1 0 .43c-.15.23-.21.49-.39.77s-.55.56-.71.81-.51.37-.51.41v.39c0 .08.69.22.78.41s.86.33.86.41v2.81a23.18 23.18 0 0 1-.61 3.49c-.18 1.16-.55 2.32-.76 3.47s-.48 2.31-.67 3.48a22.63 22.63 0 0 0-.32 3.48 62 62 0 0 0 .29 6.25 42.27 42.27 0 0 0 1.08 6.1 30.93 30.93 0 0 0 2.11 5.7 23.17 23.17 0 0 0 3.38 5.18 5.41 5.41 0 0 1-1.25.82 9.92 9.92 0 0 1-1.66.67 12.41 12.41 0 0 1-1.71.46 5.24 5.24 0 0 1-1.43.09l-.46-.1-1-.25-1.18-.26-1-.22c-.23 0-.47-.08-.74-.14a5.1 5.1 0 0 1-.74-.28 3.59 3.59 0 0 1-.61-.48 1.37 1.37 0 0 1-.32-.71 29.63 29.63 0 0 0 .11-4c-.05-1.4-.15-2.81-.28-4.23s-.33-2.82-.51-4.24-.38-2.74-.52-4a2.73 2.73 0 0 1-.2-.63 1.45 1.45 0 0 0-.25-.59c.07-1.1.1-2.3.13-3.61a38.45 38.45 0 0 0-.13-4 25.64 25.64 0 0 0-.59-3.94 11.2 11.2 0 0 0-1.4-3.39 3.37 3.37 0 0 0-1.44 1.79 21 21 0 0 0-.77 2.7c-.22 1-.2 1.91-.43 2.86s-.92 1.73-.92 2.32v7.49c0 2.81-.22 5.56-.1 8.22s.2 5.37.56 8.13a1.8 1.8 0 0 0 .41.33c.26.18.51.38.8.59a6 6 0 0 1 .79.7.91.91 0 0 1 .34.62c0 .23-.27.49-.81.79a14.33 14.33 0 0 1-1.83.85 21.17 21.17 0 0 1-2 .82 10.83 10.83 0 0 1-1.27.42h-.18l-4.71-2.57a.45.45 0 0 1-.22-.47v-.6a20.7 20.7 0 0 1 0-3 21.78 21.78 0 0 0 .11-3 26.26 26.26 0 0 0-.31-3.77c-.16-1.23-.38-2.46-.58-3.68s-.41-2.46-.59-3.71a30.28 30.28 0 0 1-.25-3.86c0-1.22 0-2.32.11-3.29s.2-1.89.35-2.78.34-1.82.52-2.78.41-2 .66-3.17a1.36 1.36 0 0 0-.05-.7 4.8 4.8 0 0 1-.11-.71 7.81 7.81 0 0 0-1.86.21c-.61.15-1.22.31-1.84.51l-1.91.61a16 16 0 0 1-1.89.51c-.51.06-1 .13-1.35.2l-1.06.13c-.35 0-.66-.13-1-.11s-.68-.17-1.06-.17h-1.8c-1.79 0-3.54.11-5.21 0s-3.4-.15-5.21-.15c-.77 0-1.58.06-2.42.09a4 4 0 0 0-2.33.85v5.15c0 1.69-.09 3.38-.16 5.05s-.2 3.38-.26 5.07-.15 3.4-.15 5.15v5.04c0 .54.66 1.1 1.12 1.66s.94 1.12 1.39 1.7a15.69 15.69 0 0 1 1.18 1.74 3.33 3.33 0 0 1 .52 1.77v.38a9 9 0 0 1-4 .39c.08.48 0 .73-.23.79a3.39 3.39 0 0 1-.7.07h-2a9.56 9.56 0 0 1-2.24-.23 4.28 4.28 0 0 1-1.8-.84 2.17 2.17 0 0 1-.76-1.84 7.22 7.22 0 0 1 .13-1.28c.1-.43.2-.85.31-1.28s.23-.86.32-1.3a6.88 6.88 0 0 0 .13-1.38 24.73 24.73 0 0 0-.27-3.8c-.18-1.21-.41-2.4-.67-3.56s-.53-2.62-.8-3.79a26.14 26.14 0 0 1-.71-3.94h-.43c-.21 0-.38.75-.51.92s-.26.48-.39.67-.23.42-.31.53c-.5.74-1 1.53-1.55 2.25s-1 1.5-1.45 2.26a16.52 16.52 0 0 0-1.06 2.4 8.39 8.39 0 0 0-.43 2.67 4.14 4.14 0 0 0 .33 1.61 14 14 0 0 0 .72 1.5c.26.44.51.84.72 1.15a1.61 1.61 0 0 1 .33.58.85.85 0 0 1-.41.72 3.19 3.19 0 0 1-1 .46 10.28 10.28 0 0 1-1.32.26c-.46 0-.9.1-1.33.1h-1.24a11 11 0 0 1-1.71-.13 2.12 2.12 0 0 1-1.06-.39 2.09 2.09 0 0 1-.69-.86 9.33 9.33 0 0 1-.55-1.6c-.16-.55-.32-1.07-.51-1.6a5.05 5.05 0 0 1-.27-1.65 3.29 3.29 0 0 1 .41-1.48c.28-.51.59-1 .93-1.57l1-1.57a6.4 6.4 0 0 0 .81-1.43c.84-1.93 1.64-3.89 2.43-5.85s1.61-3.89 2.45-5.85a4.35 4.35 0 0 1 .46-.74l.53-.7a3.2 3.2 0 0 0 .42-.74 1.69 1.69 0 0 0 .18-.82c0-.37-.11-.58-.32-.63a3 3 0 0 0-.64-.08 1.37 1.37 0 0 0-.38.05h-.25l-8.86 2.4a2.73 2.73 0 0 1-1.29.52L91 175a6.65 6.65 0 0 0-1.56.57 1.12 1.12 0 0 0-.69 1 1.45 1.45 0 0 0 .26.89 2.66 2.66 0 0 0 .64.66l.82.54a2.91 2.91 0 0 1 .74.61l-.39.43c-.38-.27-.81-.55-1.27-.84a12.46 12.46 0 0 0-1.4-.82 8.65 8.65 0 0 0-1.49-.61 4.56 4.56 0 0 0-1.5-.23 14.28 14.28 0 0 0-3.76.51c-1.28.33-2.6.7-3.93 1.12s-2.68.8-4.06 1.13a17.31 17.31 0 0 1-4.17.51 20.74 20.74 0 0 1-3.44-.4A47.07 47.07 0 0 1 61 179c-1.76-.49-3.55-1.06-5.38-1.74a38.06 38.06 0 0 1-5-2.23 15.6 15.6 0 0 1-3.62-2.7 4.13 4.13 0 0 1-1.43-2.94 4.44 4.44 0 0 1 1.11-3.24 6.38 6.38 0 0 1 2.73-1.62 14 14 0 0 1 3.45-.15c1.22 0 2.34.33 3.32.33h3.9a2.51 2.51 0 0 1 1.26-.25c.69.08 1.47 0 2.32.15s1.71.18 2.53.31 1.5.18 2 .26a7.82 7.82 0 0 1 1.92.54l1.77.84c.58.28 1.19.52 1.81.75a6.2 6.2 0 0 0 2 .33 8.61 8.61 0 0 0 3.94-1.06 29.51 29.51 0 0 0 4.1-2.53c1.34-1 2.64-2 3.86-3.09s2.3-2 3.24-2.69a16.48 16.48 0 0 1 1.84-1.27c.62-.34 1.23-.7 1.84-1.08a17 17 0 0 0 1.71-1.25A8.19 8.19 0 0 0 97.7 153a37.81 37.81 0 0 0 2.59-4.44 30.07 30.07 0 0 1 2.68-4.42 6.67 6.67 0 0 1 1.3-1.3 15.37 15.37 0 0 1 1.53-1c.52-.29 1.07-.59 1.61-.87a15 15 0 0 0 1.61-.9c1.21-.81 2.41-1.68 3.56-2.62s2.31-1.9 3.42-2.89 2.24-2 3.34-3 2.23-1.94 3.42-2.85a21.38 21.38 0 0 1 3.74-2.18c1.32-.59 2.62-1.22 3.9-1.84.84-.38 1.66-.81 2.46-1.27s1.63-.89 2.45-1.3a27.48 27.48 0 0 1 2.55-1.13 12.28 12.28 0 0 1 2.65-.74l22.2-3.24a10.43 10.43 0 0 0 3.47-1.12 20.11 20.11 0 0 0 3.33-2.16 32.26 32.26 0 0 0 3.16-2.86c1-1.06 2-2.14 2.89-3.23s1.81-2.15 2.65-3.18 1.59-2 2.3-2.78l7.64-8.91a1.91 1.91 0 0 0 .33-.26c.18-.17.34-.35.52-.54s.36-.37.51-.53.25-.25.28-.26l2-3.24.25-.17c.13-.08.25-.14.38-.23l.38-.23a.82.82 0 0 0 .21-.19 2.69 2.69 0 0 0 .41-.4l.36-.39c.38-.5.79-1 1.23-1.69s.92-1.29 1.37-2 .89-1.32 1.3-1.94a18.92 18.92 0 0 0 1-1.71 12.13 12.13 0 0 0 .85-2c.23-.69.46-1.4.69-2.11s.5-1.44.76-2.17 1-1.46 1-2.18v-5.96a5.12 5.12 0 0 0-1.08-3.06 11.92 11.92 0 0 0-2.61-2.6 13.39 13.39 0 0 0-3.33-1.79 9.3 9.3 0 0 0-3.18-.67 24.77 24.77 0 0 0-5.77.67 12.13 12.13 0 0 0-5.08 2.62 12.45 12.45 0 0 0-1.43 1.41c-.51.59-1 1.22-1.59 1.86s-1.15 1.31-1.74 2a20.9 20.9 0 0 1-1.83 1.82 10.58 10.58 0 0 1-1.81 1.3 3.5 3.5 0 0 1-1.75.51 1.59 1.59 0 0 1-1.16-.48 1.54 1.54 0 0 1-.5-1.12v-.42a4.4 4.4 0 0 1 .11-.48c0-.23.11-.49.16-.76s.11-.52.14-.77a2.52 2.52 0 0 0 .07-.46 5.28 5.28 0 0 0-.24-1.66 13 13 0 0 0-.59-1.35c-.23-.41-.41-.8-.59-1.18a3 3 0 0 1-.25-1.23 1 1 0 0 0 .84-.27 2.52 2.52 0 0 0 .44-.62l.43-.74a1.7 1.7 0 0 1 .79-.59 1.35 1.35 0 0 1 .54 0c.23 0 .53-.12.86-.12s.64-.09.9-.09h.51a1.09 1.09 0 0 0 .94-.37 3.7 3.7 0 0 1 .7-.65.44.44 0 0 1 .23 0l.15.05a.9.9 0 0 1 .25.37 1.49 1.49 0 0 0 .18.41.43.43 0 0 1 .39-.37c.1-.07.32-.18.63-.37l1.1-.64 1.35-.8 1.33-.79 1.08-.64a2.72 2.72 0 0 0 .56-.4 18.36 18.36 0 0 1 2.09-1.24 7.16 7.16 0 0 1 1.76-.63 9.36 9.36 0 0 1 1.9-.21h6.4a5.78 5.78 0 0 0 1.46.52c.51.13 1 .23 1.51.32s1 .19 1.55.31a10 10 0 0 1 1.52.49 14.9 14.9 0 0 1 4.52 3 16.73 16.73 0 0 1 3.16 4.16 18.74 18.74 0 0 1 1.71 5 24 24 0 0 1 .48 5.41v1.51c0 .26-.02.52-.02.78z"/></symbol><symbol id="micropachycephalosaurus" viewBox="0 0 256 256"><path d="M132.5 150.94c-.28 0-.42.19-.42.59H132c-.31 0-.47.16-.47.49s.16.59.47.59.41-.2.41-.59.05 0 .09 0c.34 0 .5-.16.5-.49s-.16-.59-.5-.59zm1.44-.79a2.17 2.17 0 0 0-.85.79h.29a2.22 2.22 0 0 0 1.1-.33 2.19 2.19 0 0 0 .84-.78H135a2 2 0 0 0-1.06.32zm3.06-2.55q-.42 0-.42.54a.25.25 0 0 0-.13 0c-.28 0-.42.18-.42.56a.23.23 0 0 0-.12 0c-.31 0-.48.2-.48.59s.17.54.48.54.46-.18.46-.54h.08c.32 0 .46-.2.46-.59s.05 0 .09 0c.34 0 .5-.18.5-.56s-.19-.54-.5-.54zm23-5.87a13.1 13.1 0 0 1-1.26 1.4 1.78 1.78 0 0 0 .8 1 2.94 2.94 0 0 0 1.13.19 2.17 2.17 0 0 0 1.39-.47 4.92 4.92 0 0 0 1-1.21 10.6 10.6 0 0 0 .75-1.46c.22-.51.38-1.16.5-1.16H161c-.24.04-.55 1.11-1 1.71z"/><path d="M128 2a126 126 0 1 0 126 126A126 126 0 0 0 128 2zm94.49 74.75a4.9 4.9 0 0 1-1.55.37 13.08 13.08 0 0 1-1.64.09h-1.1l-.93.07a42.54 42.54 0 0 0-5.16 1.23 16.11 16.11 0 0 0-3.62 1.58 9.18 9.18 0 0 0-2.49 2.16 13.61 13.61 0 0 0-1.75 2.91A36.21 36.21 0 0 0 202.8 89c-.47 1.47-1 3.13-1.64 5-.39 1.18-.79 2.31-1.18 3.4s-.81 2.14-1.25 3.15-.91 2.06-1.43 3.11-1.1 2.1-1.74 3.21a34.39 34.39 0 0 1-2.65 4c-.94 1.23-1.91 2.45-2.92 3.63s-2 2.35-3.08 3.53-2.07 2.45-3.09 3.8a10.11 10.11 0 0 0-1.36 2.65c-.3.87-.61 1.72-1 2.53a7.88 7.88 0 0 1-1.33 2.18 5.44 5.44 0 0 1-2.46 1.58 8.59 8.59 0 0 1-1.33.56l-2 .67-2 .63c-.64.2-1.08.33-1.35.38a2.92 2.92 0 0 1 .17 2 2 2 0 0 1-.86.92 12.14 12.14 0 0 1-1.2.59 1.64 1.64 0 0 0-.88 1l-2.22 6.71a2.63 2.63 0 0 1-1 1.5 6.05 6.05 0 0 1-1.75.85 10.83 10.83 0 0 1-2 .18 13.82 13.82 0 0 1-1.84-.13h-.84c-.48 0-.86.16-1.12.05s-.41-.33-.41-.84a.58.58 0 0 1 .11-.37 3.11 3.11 0 0 1 .23-.28l.24-.28a.75.75 0 0 0 .09-.39.49.49 0 0 0 0-.11.44.44 0 0 1 0-.18 22.53 22.53 0 0 0-3.4 1.64c-1.1.64-2.22 1.33-3.34 2l-3.3 2.15a35.48 35.48 0 0 1-3.34 2 3.14 3.14 0 0 1-.85.44 11.27 11.27 0 0 0-1.15.58 4.84 4.84 0 0 0-1 .77 1.48 1.48 0 0 0-.43 1 2.86 2.86 0 0 0 0 .33v.23c.56.49 1.15 1 1.78 1.61s1.25 1.15 1.92 1.71 1.33 1.1 2 1.59a14.08 14.08 0 0 0 2.09 1.23 9.34 9.34 0 0 0 1.79.68l1.92.52c.65.2 1.27.4 1.88.64a7.4 7.4 0 0 1 1.66.91 7.93 7.93 0 0 1 1.33 1.39l1.1 1.5c.35.49.72 1 1.12 1.45a6.21 6.21 0 0 0 1.51 1.3 6 6 0 0 0 1.66.59 17.46 17.46 0 0 1 2.06.64 6.38 6.38 0 0 1 1.77 1 2.07 2.07 0 0 1 .76 1.69.91.91 0 0 1-.07.28 1.39 1.39 0 0 0 0 .23l-5.57 1.13a4.08 4.08 0 0 0-1.09.38 2.25 2.25 0 0 1-1.15.26h-.28a1.59 1.59 0 0 0-.27 0l-1.12-.62-1.73-1c-.61-.35-1.16-.69-1.67-1a6.25 6.25 0 0 1-1-.73s-.1-.09-.2-.22l-.31-.49-.34-.54c-.1-.18-.2-.33-.25-.45l-2.24-4.47-1.13-.44-1.79-.74c-.68-.28-1.37-.59-2.12-.92s-1.45-.66-2.12-1-1.27-.58-1.78-.83a9.51 9.51 0 0 1-1.1-.59 23.17 23.17 0 0 1-2.92-1.56 16.06 16.06 0 0 1-2.6-2.12 12.87 12.87 0 0 1-2-2.66 8.07 8.07 0 0 1-1-3.11l-.56.23a2.61 2.61 0 0 0-.59.33 7.09 7.09 0 0 1-.85.64l-1.7 1.17c-.65.44-1.36.92-2.1 1.4s-1.45.92-2.11 1.34-1.24.78-1.74 1.07a8.9 8.9 0 0 1-.93.53c-2.24 1.33-4.21 2.5-5.94 3.5a23.31 23.31 0 0 0-4.5 3.38 17.22 17.22 0 0 0-3.59 4.41c-.87 1.69-.72 3.88-2.36 6.56v.21a2.77 2.77 0 0 1 0 .41 4.34 4.34 0 0 0 0 .51v.43a9.92 9.92 0 0 0 1.14 4.4 7.83 7.83 0 0 0 2.11 2.55 8.66 8.66 0 0 0 2.61 1.4 27.1 27.1 0 0 1 2.54 1 5.46 5.46 0 0 1 2 .95 5 5 0 0 1 .79 2h-13.23s-.09-.24-.18-.39-.24-.12-.37-.2a4.11 4.11 0 0 0-.49-.15 2.79 2.79 0 0 1-.61-.32 2.93 2.93 0 0 1-1.25-1.52 8.92 8.92 0 0 1-.46-2.14 16.51 16.51 0 0 1 .2-2.32c0-.77.28-1.44.28-2v-1.44a7 7 0 0 1 .26-1.75c.22-.8.33-1.69.58-2.68s.47-2 .76-3.12.55-2.13.8-3.12.47-1.87.65-2.65.34-1.36.42-1.74a15.13 15.13 0 0 1 .66-2 13.19 13.19 0 0 1 1-1.88 14 14 0 0 0 4.47-2.55 26 26 0 0 0 3.22-3.25c1-1.13 1.94-2.27 2.88-3.4a15.44 15.44 0 0 1 3.4-3.06 7 7 0 0 1 1.43-.7l2-.79c.75-.3 1.51-.63 2.3-1a14.78 14.78 0 0 0 2.14-1.11 8.39 8.39 0 0 0 1.56-1.32 2.34 2.34 0 0 0 .61-1.54v-1.32a1.84 1.84 0 0 0-.63-1.2 6.3 6.3 0 0 1-.75-.28l-1.18-.52-1.17-.56-.77-.33a10.08 10.08 0 0 1-2-1.2c-.83-.61-1.7-1.23-2.61-1.88s-1.74-1-2.53-1.54a3.17 3.17 0 0 0-1.73-.56h-7.8c-5.94 0-11.77-.1-17.52.1s-11.59.2-17.52.2c-4.36 0-8.61-.15-12.76-.36a110.14 110.14 0 0 1-12.27-1.36 84.22 84.22 0 0 1-11.92-2.91 68 68 0 0 1-11.68-5l-1.42-.71a11.88 11.88 0 0 1-1.57-1 6.26 6.26 0 0 1-1.29-1.28 2.55 2.55 0 0 1-.52-1.57 6.92 6.92 0 0 1 2.08.4c.79.28 1.6.57 2.39.92s1.51.66 2.17 1 1.15.51 1.49.62c1.43.56 3 1.12 4.62 1.65s3.32 1 5 1.43 3.41.74 5.08 1a33.06 33.06 0 0 0 4.82.35h25.07a9.39 9.39 0 0 0 1.22-.12l2.53-.34c1-.13 2.12-.31 3.34-.52s2.41-.41 3.6-.6 2.33-.4 3.4-.61 2-.41 2.65-.57l6.83-1.34c2.42-.46 4.85-1 7.3-1.59s4.85-1.3 7.2-2.09a48 48 0 0 0 6.56-2.77c1.28-.6 2.54-1.19 3.79-1.76s2.48-1.12 3.77-1.6 2.58-.93 3.91-1.31a32.27 32.27 0 0 1 4.17-.91c.1 0 .45-.06 1-.11l1.77-.12 1.76-.14a5.33 5.33 0 0 0 1-.18c.31 0 .93-.14 1.87-.33l3.32-.73c1.27-.28 2.61-.57 4-.9s2.76-.62 4-.9 2.35-.92 3.28-1.11 1.57-.72 1.88-.72h6.46c2.7 0 5.32.48 7.87.71s5.13.51 7.78.51a10 10 0 0 0 5-1.24 18.15 18.15 0 0 0 4.47-3.48 32 32 0 0 0 3.86-4.92 62 62 0 0 0 3.23-5.61c1-1.89 1.82-3.74 2.53-5.53s1.3-3.38 1.76-4.77c.42-1.18.78-2.33 1.11-3.43s.66-2.15 1-3.1a15.19 15.19 0 0 1 1.2-2.6 7.22 7.22 0 0 1 1.76-2 7.87 7.87 0 0 1 2.59-1.59 12.46 12.46 0 0 1 3.77-.78h3.04c.75 1.64 1.74.9 3 1.3a35.32 35.32 0 0 1 3.51 1.51 15 15 0 0 1 3 1.81 2.82 2.82 0 0 1 1.24 2.16 2 2 0 0 1-.45 1.4 3 3 0 0 1-1.13.79z"/></symbol><symbol id="velociraptor" viewBox="0 0 256 256"><path d="M128 2a126 126 0 1 0 126 126A126 126 0 0 0 128 2zm109 115c-1.4.08-2.76.08-4.08 0s-2.4-.08-3.22-.08c-3 0-6-.15-9.06-.44s-6-.63-9-1-6-.65-9-1-6-.44-9.1-.44a133.37 133.37 0 0 0-16.14 1 72.72 72.72 0 0 0-15.68 3.66l-30.33 11a2.49 2.49 0 0 0-1.2 1.55 19.64 19.64 0 0 0-.8 2.71c-.23 1-.43 1.92-.63 2.82a6.85 6.85 0 0 1-.6 1.94 3.09 3.09 0 0 0 1.36 1.32 22.16 22.16 0 0 0 2.42 1.15c.9.38 1.85.76 2.86 1.17a17.31 17.31 0 0 1 2.74 1.43 8.29 8.29 0 0 1 2.07 1.85 3.84 3.84 0 0 1 .81 2.44 1.65 1.65 0 0 1-.48 1.2 5.23 5.23 0 0 1-1.2.87 12.94 12.94 0 0 1-1.59.72 9.17 9.17 0 0 0-1.6.79 4.55 4.55 0 0 0-1.21 1 2.31 2.31 0 0 0-.48 1.5 3.65 3.65 0 0 0 .79 2.51 7.77 7.77 0 0 0 1.9 1.57c.74.46 1.53.88 2.35 1.31a7.25 7.25 0 0 1 2.14 1.71 17.21 17.21 0 0 1 2 3.42 23.53 23.53 0 0 1 1.26 3.65 34.7 34.7 0 0 1 .76 3.81c.18 1.3.1 2.61.25 3.91l1.31 1.3v7.1a3.78 3.78 0 0 1 .85 0c.28.05.7.1 1 .18l1 .21a1.64 1.64 0 0 1 .56.23c0 .45.08.73.08.84a6.59 6.59 0 0 1-.47 2.19 3.09 3.09 0 0 1-.62.93 1 1 0 0 1-.87.3H143c-.2 0-.51-.52-1-.81s-.95-.54-1.48-.85-1-.46-1.54-.77-.89-.86-1.15-.86h-6.1a4.64 4.64 0 0 1 .64-2.92 4.29 4.29 0 0 1 1.63-1.54 6.67 6.67 0 0 1 2.1-.64c.74-.1 1.45-.22 2.1-.35a5 5 0 0 0 1.62-.6 1.47 1.47 0 0 0 .64-1.35 2.31 2.31 0 0 0 0-.34v-.29c-.18-.41-.46-1-.84-1.76s-.79-1.56-1.27-2.4a26.36 26.36 0 0 0-1.51-2.45 9.39 9.39 0 0 0-1.54-1.79 7 7 0 0 0-1.29-.79l-1.84-.94a18.61 18.61 0 0 1-1.74-1 2.13 2.13 0 0 1-.95-1.08 23.44 23.44 0 0 1-.92-2.91 21 21 0 0 0-1.07-3.19 7.92 7.92 0 0 0-1.71-2.57 3.92 3.92 0 0 0-2.86-1 23 23 0 0 0-6 .79 26.07 26.07 0 0 0-10.62 5.65 22.11 22.11 0 0 0-3.89 4.54.44.44 0 0 1-.35.18h-.16a.15.15 0 0 1-.12-.15.68.68 0 0 1-.2-.33c0-.18-.09-.4-.16-.63s-.12-.42-.16-.6a.66.66 0 0 0-.15-.33.64.64 0 0 0-.28-.07 1.4 1.4 0 0 0-1 .48 5.87 5.87 0 0 0-.87 1.15l-.9 1.19a3.68 3.68 0 0 1-.83 1 4.32 4.32 0 0 1-.65-1.63 14.55 14.55 0 0 1-.08-1.62 10 10 0 0 1 .4-2.88c.26-.92.56-1.84.88-2.78s.64-1.56.91-2.53a19.63 19.63 0 0 0 .39-2.74h-4.81c0-1.65.21-1.79.64-2.35a5.76 5.76 0 0 1 1.59-1.56 7.13 7.13 0 0 1 2.11-.91 10.45 10.45 0 0 1 2.1-.29 19.94 19.94 0 0 1 3 .2l2.91.46c1 .18 1.91.33 2.86.46a21.26 21.26 0 0 0 2.89.19h2.29a2.54 2.54 0 0 0-1.68-1.35 15.09 15.09 0 0 0-2.51-.45l-2.67-.19c-.88-.05-1.59.14-2.17-.2l-3.86-2.17h-.28a13.22 13.22 0 0 0-3.14 0 13.42 13.42 0 0 1-3.12.16 7.36 7.36 0 0 1-3-.69 26 26 0 0 1-2.62-1.36c-.84-.48-1.76-1-2.59-1.34a5 5 0 0 0-2.86-.62v6a12.32 12.32 0 0 0 1.57-.15 5.33 5.33 0 0 0 1-.33 4.68 4.68 0 0 0 .87-.51c.32-.19.37-.41.88-.64.12-.06.61-.13.61-.16v2.74l2-.67c0 .11.2.28.22.51s.12.38.12.49a5.51 5.51 0 0 1-1.3 3.85 21.93 21.93 0 0 1-3.23 2.87 22.54 22.54 0 0 0-4.56-1.25c-1.5-.24-3.09-.46-4.74-.65v-7.73c0 .08-1 .25-1.72.53a17.22 17.22 0 0 0-2 1 12.72 12.72 0 0 0-1.9 1.19c-.46.41-.92.8-.92 1.16v6.84a10.25 10.25 0 0 0 2.94-.28 12.2 12.2 0 0 0 1.82-.59 12.75 12.75 0 0 0 1.22-.59 2.6 2.6 0 0 1 1.21-.28h.14a.79.79 0 0 0 .2 0c0 .11.14.34.29.72s.29.79.46 1.23.28.89.38 1.28a4.46 4.46 0 0 1 .18 1 5.16 5.16 0 0 1-.39 1.89 7.39 7.39 0 0 1-1.1 1.72 6 6 0 0 1-1.55 1.33 3.35 3.35 0 0 1-1.81.54 4.37 4.37 0 0 1-.57-.06 3.76 3.76 0 0 0-.44-.05c-.74-.15-1.73-.32-3-.48a26.64 26.64 0 0 1-3.62-.71 11.55 11.55 0 0 1-3.21-1.23 2.49 2.49 0 0 1-1.44-2.07V149.7c0-.11.39-.38.88-.82s1.16-.95 1.87-1.59 1.52-1.35 2.36-2.16a26.29 26.29 0 0 0 2.35-2.51 19.9 19.9 0 0 0 1.8-2.63 5.41 5.41 0 0 0 .73-2.56 3.8 3.8 0 0 0-1.17-2.75 11.43 11.43 0 0 0-2.77-2 24.49 24.49 0 0 0-3.22-1.42c-1.09-.36-1.93-.65-2.52-.89l-1.3-9c-.14-.82-.34-1.71-.6-2.68a11.93 11.93 0 0 0-1.11-2.73 7.38 7.38 0 0 0-1.75-2.12 4.1 4.1 0 0 0-2.63-.87 12.4 12.4 0 0 0-3.6.48 14.72 14.72 0 0 0-3.19 1.48c-.33.23-.87.56-1.63 1l-2.51 1.48c-.94.54-1.91 1.12-2.94 1.74s-2 1.18-3 1.73-1.77 1.21-2.51 1.64-1.3 1.1-1.63 1.1h-1c-.46 0-1-.2-1.71-.23A14.21 14.21 0 0 1 30 123a3.48 3.48 0 0 1-1.37-.75c-.46-.31-.34-.8-.34-1.36v-1.86c0-.59-.22-.9.05-.92s.66 0 1.55 0a1.18 1.18 0 0 1 0-.42c.07-.25.09-.51.16-.81s.12-.59.17-.85a.89.89 0 0 0 0-.5 2.42 2.42 0 0 0-.8-.82l-.87-.49a2.42 2.42 0 0 1-.69-.66 2 2 0 0 1-.28-1.23 3.26 3.26 0 0 1 .24-1.17 5 5 0 0 1 .68-1.15c.28-.36.24-.64.6-.87a3.61 3.61 0 0 1 .81-.33v.77c0 .5.41 1 .56 1.47a1.16 1.16 0 0 0 1.19.72 1.61 1.61 0 0 0 1.09-.48 5.73 5.73 0 0 0 .95-1.11 11.52 11.52 0 0 0 .63-1.62c.14-.45.25.27.25-1.38H22.49a1.88 1.88 0 0 1-.85-.46c-.36-.27-.71-.39-1-.67a6.41 6.41 0 0 1-.9-.8 1.42 1.42 0 0 1-.39-1 4.52 4.52 0 0 1 1.06-3.16A7.63 7.63 0 0 1 23 99.3a17.59 17.59 0 0 1 3.16-1 22.6 22.6 0 0 0 2.83-.82c.41-.15 1.15-.46 2.18-.92s2.17-1 3.34-1.55 2.28-1.06 3.3-1.57a10.09 10.09 0 0 1 2.17-1.06h13.5a7.35 7.35 0 0 1 3.82 1 13.25 13.25 0 0 1 3.09 2.5 26.39 26.39 0 0 1 2.52 3.28c.77 1.17 1.53 2.27 2.27 3.27a15.91 15.91 0 0 0 2.2 2.57 3.62 3.62 0 0 0 2.46 1 .82.82 0 0 0 .78-.39.86.86 0 0 1 .83-.4 3.72 3.72 0 0 1 1.5.32c.49.19 1 .44 1.51.7s1 .5 1.51.69a3.8 3.8 0 0 0 1.55.31c1.38 0 2.74-.06 4.08-.19s2.69-.28 4.05-.45 2.73-.32 4.08-.47a36.51 36.51 0 0 1 4.08-.23 64.79 64.79 0 0 1 7.23.39 38.27 38.27 0 0 1 7.16 1.56c1.65.56 3.31 1.22 5 2s3.37 1.46 5.06 2.15a47 47 0 0 0 5.18 1.74 21.19 21.19 0 0 0 5.39.69h1.25c.62 0 1-.06 1.31-.06 4.26-.92 8.52-1.83 12.76-2.68s8.48-1.63 12.7-2.27 8.52-1.15 12.8-1.55 8.63-.56 13-.56H186c1.79 0 3.61 0 5.45.12a40.12 40.12 0 0 1 5 .92l36.07 7.18h11.61c-.79 0-1.83 1-3.11 1.35a18.5 18.5 0 0 1-4.02.13z"/></symbol></svg>